<svg width="20" height="24" viewBox="0 0 20 24" fill="none" xmlns="http://www.w3.org/2000/svg">
<path d="M14.3412 10.633V6.3299H15.3302V1.87919H10.4649V0H4.86532V1.87919H0V6.3299H0.989046V21.4129H8.97673C10.1427 22.6311 11.7839 23.3909 13.5994 23.3909C17.1287 23.3909 20 20.5196 20 16.9903C20 13.7119 17.5223 11.0019 14.3412 10.633ZM12.8576 10.633C11.9649 10.7365 11.1277 11.0242 10.385 11.4573V6.3299H12.8576V10.633ZM6.34889 1.48357H8.98133V1.87919H6.34889V1.48357ZM1.48357 3.36276H13.8466V4.84633H1.48357V3.36276V3.36276ZM2.47262 6.3299H4.94523V19.9293H2.47262V6.3299ZM6.4288 19.9293V6.3299H8.90142V12.6483C7.84531 13.7901 7.19882 15.3161 7.19882 16.9903C7.19882 18.0492 7.45751 19.0486 7.91464 19.9293H6.4288ZM13.5994 21.9074C10.8881 21.9074 8.68239 19.7016 8.68239 16.9903C8.68239 14.2791 10.8882 12.0733 13.5994 12.0733C16.3106 12.0733 18.5164 14.2791 18.5164 16.9903C18.5164 19.7016 16.3107 21.9074 13.5994 21.9074Z" fill="black"/>
<path d="M15.2295 14.3112L13.5994 15.9413L11.9693 14.3112L10.9203 15.3603L12.5504 16.9904L10.9203 18.6204L11.9693 19.6695L13.5994 18.0394L15.2295 19.6695L16.2785 18.6204L14.6484 16.9904L16.2785 15.3603L15.2295 14.3112Z" fill="black"/>
</svg>
