<svg width="20" height="20" viewBox="0 0 20 20" fill="none" xmlns="http://www.w3.org/2000/svg">
<path d="M18.7045 1.2944C16.9829 -0.431465 14.1832 -0.431465 12.4616 1.2944L1.01552 12.7362C0.926029 12.8257 0.870631 12.9408 0.853585 13.0643L0.00556916 19.3456C-0.0199992 19.5246 0.0439216 19.7036 0.167502 19.8272C0.274037 19.9337 0.423185 19.9976 0.572334 19.9976C0.597902 19.9976 0.62347 19.9976 0.649039 19.9934L4.43315 19.482C4.74849 19.4394 4.97009 19.1496 4.92747 18.8343C4.88486 18.5189 4.59508 18.2973 4.27974 18.3399L1.24563 18.749L1.83797 14.3683L6.44879 18.9792C6.55532 19.0857 6.70447 19.1496 6.85362 19.1496C7.00277 19.1496 7.15192 19.09 7.25845 18.9792L18.7045 7.53733C19.5398 6.7021 20 5.59414 20 4.41373C20 3.23333 19.5398 2.12537 18.7045 1.2944ZM12.6832 2.70065L14.6051 4.62254L4.16042 15.0672L2.23854 13.1453L12.6832 2.70065ZM6.85788 17.7604L4.97861 15.8811L15.4233 5.43646L17.3025 7.31574L6.85788 17.7604ZM18.1037 6.49329L13.5056 1.89525C14.0895 1.41372 14.8182 1.14951 15.5852 1.14951C16.4588 1.14951 17.277 1.49042 17.8949 2.10406C18.5128 2.7177 18.8494 3.54015 18.8494 4.41373C18.8494 5.18504 18.5852 5.90948 18.1037 6.49329Z" fill="black"/>
</svg>
