<svg width="158" height="187" viewBox="0 0 158 187" fill="none" xmlns="http://www.w3.org/2000/svg">
<g clip-path="url(#clip0_2_6)">
<rect width="158" height="187" fill="white"/>
<path fill-rule="evenodd" clip-rule="evenodd" d="M68.209 12.5395C68.048 7.63345 68.147 3.02045 68.427 2.28945C68.805 1.30545 71.553 0.96045 79.004 0.96045H89.07L88.785 11.2105L88.5 21.4605H78.5H68.5L68.209 12.5395ZM94.5 21.4605L94.215 11.2105L93.93 0.96045H104H114.07L113.785 11.2105L113.5 21.4605H104H94.5ZM41.849 46.7505C40.871 45.2085 40.712 28.5815 41.667 27.6275C42.033 27.2605 46.774 26.9605 52.202 26.9605H62.07L61.785 37.2104L61.5 47.4604L52.084 47.7505C45.224 47.9615 42.445 47.6895 41.849 46.7505ZM68.209 38.5394C68.048 33.6334 68.147 29.0204 68.427 28.2894C68.805 27.3054 71.553 26.9605 79.004 26.9605H89.07L88.785 37.2104L88.5 47.4604H78.5H68.5L68.209 38.5394ZM41.203 65.4634C41.04 61.0654 41.166 56.4374 41.482 55.1774C42.037 52.9624 42.371 52.8984 51.778 53.1744L61.5 53.4604L61.785 63.7455L62.071 74.0314L51.785 73.7455L41.5 73.4604L41.203 65.4634ZM68.209 64.5395C68.048 59.6335 68.153 55.0044 68.441 54.2534C68.845 53.1994 71.199 52.9534 78.733 53.1744L88.5 53.4604L88.785 63.7455L89.071 74.0314L78.785 73.7455L68.5 73.4604L68.209 64.5395ZM94 73.9604V63.4604V52.9604H104H114V63.4604V73.9604H104H94ZM41.207 91.0444C41.046 86.4154 41.144 82.0274 41.425 81.2944C41.805 80.3054 44.531 79.9604 51.969 79.9604H62V89.9955V100.03L51.75 99.7455L41.5 99.4604L41.207 91.0444ZM68.5 99.4604L68.214 89.7104L67.928 79.9604H78.464H89V89.9955V100.03L78.75 99.7455L68.5 99.4604ZM37.905 128.934C30.186 126.856 27.825 121.82 32.75 117.937C34.851 116.281 36.394 115.889 39.289 116.275C43.752 116.87 46 118.481 46 121.082C46 123.36 42.484 123.664 41.638 121.46C41.305 120.592 39.81 119.96 38.09 119.96C32.277 119.96 33.33 123.17 39.705 124.883C44.913 126.282 47 128.283 47 131.876C47 135.909 43.842 138.293 38.5 138.293C33.608 138.293 30 135.964 30 132.805C30 130.319 33.183 130.423 34.768 132.96C36.227 135.296 40.225 135.598 41.964 133.504C43.667 131.452 42.539 130.182 37.905 128.934ZM138.324 134.332C134.813 128.973 137.06 119.155 142.308 116.918C146.062 115.319 152.26 116.561 154.704 119.402C159.972 125.526 157.892 135.353 150.841 137.654C146.079 139.209 140.56 137.744 138.324 134.332ZM2 137.96C0.127 137.96 0 137.293 0 127.46C0 117.627 0.127 116.96 2 116.96C3.873 116.96 4 117.627 4 127.46C4 137.293 3.873 137.96 2 137.96ZM9.954 137.96C8.139 137.96 8 137.212 8 127.46C8 117.031 8.016 116.96 10.41 116.96C12.291 116.96 13.775 118.444 17.16 123.71L21.5 130.46L21.796 123.71C22.055 117.78 22.329 116.96 24.046 116.96C25.861 116.96 26 117.708 26 127.46C26 137.862 25.978 137.96 23.612 137.96C21.761 137.96 20.242 136.442 16.862 131.21L12.5 124.46L12.204 131.21C11.945 137.14 11.671 137.96 9.954 137.96ZM52.5 119.96C50.056 119.96 49 119.508 49 118.46C49 117.238 50.667 116.96 58 116.96C65.333 116.96 67 117.238 67 118.46C67 119.508 65.944 119.96 63.5 119.96H60V128.96C60 137.293 59.852 137.96 58 137.96C56.148 137.96 56 137.293 56 128.96V119.96H52.5ZM72 137.96C70.127 137.96 70 137.293 70 127.46C70 117.627 70.127 116.96 72 116.96C73.873 116.96 74 117.627 74 127.46C74 137.293 73.873 137.96 72 137.96ZM80 119.96C78 119.96 77 119.46 77 118.46C77 117.244 78.611 116.96 85.5 116.96C92.389 116.96 94 117.244 94 118.46C94 119.46 93 119.96 91 119.96H88V128.96C88 137.893 87.981 137.96 85.5 137.96C83.019 137.96 83 137.893 83 128.96V119.96H80ZM98.012 134.982C97.455 133.942 97 129.462 97 125.026C97 117.627 97.165 116.96 99 116.96C100.821 116.96 101 117.627 101 124.389C101 132.174 102.284 134.96 105.871 134.96C109.112 134.96 110 132.766 110 124.76C110 117.627 110.171 116.96 112 116.96C113.849 116.96 114 117.627 114 125.805C114 135.268 113.184 137.024 108.226 138.232C104.959 139.027 99.195 137.194 98.012 134.982ZM121 119.96C119 119.96 118 119.46 118 118.46C118 117.244 119.611 116.96 126.5 116.96C133.222 116.96 135 117.26 135 118.397C135 119.287 133.763 119.953 131.75 120.147L128.5 120.46L128.211 129.21C127.949 137.137 127.738 137.96 125.961 137.96C124.158 137.96 124 137.234 124 128.96V119.96H121ZM151 132.96C153.614 130.346 153.712 123.914 151.171 121.615C148.561 119.253 144.418 119.526 142.557 122.183C137.569 129.304 145.075 138.885 151 132.96ZM16 163.96C14.121 163.96 14 163.293 14 152.914V141.869L20.75 142.164C25.952 142.392 27.5 142.804 27.5 143.96C27.5 145.04 26.17 145.545 22.75 145.765C18.461 146.04 18 146.307 18 148.515C18 150.701 18.424 150.96 22 150.96C25.333 150.96 26 151.293 26 152.96C26 154.627 25.333 154.96 22 154.96H18V159.46C18 163.293 17.704 163.96 16 163.96ZM31 163.96V152.96V141.96H38.5C45.333 141.96 46 142.138 46 143.96C46 145.718 45.333 145.96 40.5 145.96C35.3 145.96 35 146.096 35 148.46C35 150.793 35.333 150.96 40 150.96C43.778 150.96 45 151.327 45 152.46C45 153.593 43.778 153.96 40 153.96C35.111 153.96 35 154.027 35 156.96C35 159.93 35.056 159.96 40.5 159.96C45.333 159.96 46 160.202 46 161.96C46 163.782 45.333 163.96 38.5 163.96H31ZM50 164.2V153.08V141.96H55.545C60.1 141.96 61.53 142.399 63.545 144.415C65.6 146.469 66 147.836 66 152.804C66 161.157 64.185 163.174 56.149 163.756L50 164.2ZM70 163.96V152.96V141.96H77.5C84.333 141.96 85 142.138 85 143.96C85 145.718 84.333 145.96 79.5 145.96C74.3 145.96 74 146.096 74 148.46C74 150.793 74.333 150.96 79 150.96C82.778 150.96 84 151.327 84 152.46C84 153.593 82.778 153.96 79 153.96C74.111 153.96 74 154.027 74 156.96C74 159.93 74.056 159.96 79.5 159.96C84.333 159.96 85 160.202 85 161.96C85 163.782 84.333 163.96 77.5 163.96H70ZM91 163.96C89.121 163.96 89 163.293 89 152.96V141.96H94.777C101.799 141.96 105 143.834 105 147.945C105 150.876 102.799 153.948 100.679 153.975C99.823 153.986 99.808 154.192 100.624 154.725C101.878 155.545 105.99 162.04 105.996 163.21C105.998 163.622 105.141 163.96 104.092 163.96C102.918 163.96 101.09 162.228 99.342 159.462C95.511 153.398 93 153.398 93 159.46C93 163.293 92.704 163.96 91 163.96ZM110.717 153.46C112.114 149.61 113.65 145.416 114.13 144.141C114.733 142.54 115.655 141.92 117.108 142.141C118.777 142.394 120.018 144.609 123.106 152.847C125.248 158.559 127 163.397 127 163.597C127 163.796 126.089 163.96 124.975 163.96C123.736 163.96 122.582 162.991 122 161.46C121.202 159.361 120.399 158.96 117 158.96C113.601 158.96 112.798 159.361 112 161.46C111.396 163.048 110.271 163.96 108.918 163.96C107.289 163.96 106.95 163.547 107.481 162.21C107.864 161.247 109.32 157.31 110.717 153.46ZM129.21 154.035C129.051 148.851 129.149 144.014 129.429 143.285C129.708 142.556 130.626 141.96 131.469 141.96C132.73 141.96 133 143.539 133 150.908V159.855L138.25 160.158C142.116 160.38 143.5 160.856 143.5 161.96C143.5 163.15 142.056 163.46 136.5 163.46H129.5L129.21 154.035ZM60.8 158.76C62.356 157.204 62.356 148.716 60.8 147.16C60.14 146.5 58.34 145.96 56.8 145.96C55.8148 145.96 55.1762 145.96 54.7624 146.265C54 146.827 54 148.423 54 152.96C54 157.497 54 159.094 54.7624 159.656C55.1762 159.96 55.8148 159.96 56.8 159.96C58.34 159.96 60.14 159.42 60.8 158.76ZM96.75 150.77C99.73 150.524 100.5 150.049 100.5 148.46C100.5 146.871 99.73 146.396 96.75 146.15C93.292 145.863 93 146.043 93 148.46C93 150.877 93.292 151.057 96.75 150.77ZM116.702 154.96C118.943 154.96 119.143 154.661 118.538 152.21C117.466 147.87 116.438 147.626 115.269 151.435C114.23 154.821 114.287 154.96 116.702 154.96ZM30.5 170.96C29.125 170.96 28 170.51 28 169.96C28 169.396 30.833 168.96 34.5 168.96C38.167 168.96 41 169.396 41 169.96C41 170.51 39.875 170.96 38.5 170.96C36.042 170.96 36 171.093 36 178.96C36 185.404 35.708 186.96 34.5 186.96C33.292 186.96 33 185.404 33 178.96C33 171.093 32.958 170.96 30.5 170.96ZM102 171.96C101.45 171.96 101 171.285 101 170.46C101 169.635 101.45 168.96 102 168.96C102.55 168.96 103 169.635 103 170.46C103 171.285 102.55 171.96 102 171.96ZM93.573 174.286C94.163 173.832 95.02 172.56 95.478 171.46L96.31 169.46L96.77 171.46C97.024 172.56 97.742 173.832 98.366 174.286C99.197 174.891 99.166 175.248 98.25 175.619C96.757 176.225 96.524 184.96 98 184.96C98.55 184.96 99 185.41 99 185.96C99 186.51 98.1 186.96 97 186.96C95.246 186.96 95 186.293 95 181.543C95 178.147 94.534 175.937 93.75 175.619C92.882 175.267 92.827 174.86 93.573 174.286ZM50.345 185.131C45.023 191.013 36.936 182.779 41.557 176.183C42.554 174.759 44.151 173.96 46 173.96C51.159 173.96 53.953 181.144 50.345 185.131ZM55.571 185.389C53.516 183.333 53.561 178.102 55.655 175.789C56.565 174.783 58.333 173.96 59.584 173.96C62.291 173.96 65.971 177.136 64.018 177.787C63.331 178.016 62.429 177.655 62.015 176.983C61.036 175.401 57.994 176.015 56.71 178.055C55.421 180.103 56.528 184.565 58.514 185.327C59.356 185.65 60.898 185.062 61.939 184.021C64.172 181.788 65.356 182.425 63.93 185.091C62.689 187.409 57.767 187.584 55.571 185.389ZM67.412 177.705C67.029 177.322 67.284 176.322 67.98 175.484C69.507 173.644 74.358 173.474 75.775 175.21C76.336 175.898 76.953 178.767 77.147 181.586L77.5 186.712L72.856 186.816C64.648 186.999 63.529 181.474 71.397 179.613C73.43 179.133 74.924 178.226 74.718 177.6C74.172 175.938 69.864 175.562 68.917 177.094C68.473 177.813 67.795 178.088 67.412 177.705ZM83.198 181.71C82.773 189.084 81 188.277 81.002 180.71L81.004 174.46L84.637 174.2C89.762 173.833 91 175.27 91 181.582C91 188.505 89.199 188.609 88.802 181.71C88.523 176.857 88.311 176.46 86 176.46C83.689 176.46 83.477 176.857 83.198 181.71ZM102 186.96C101.436 186.96 101 184.127 101 180.46C101 176.793 101.436 173.96 102 173.96C102.564 173.96 103 176.793 103 180.46C103 184.127 102.564 186.96 102 186.96ZM106 181.127C106 177.918 106.189 175.106 106.42 174.877C106.652 174.648 108.656 174.338 110.874 174.189C114.025 173.978 115.136 174.346 115.954 175.874C117.287 178.366 117.323 186.96 116 186.96C115.45 186.96 114.993 185.048 114.985 182.71C114.966 177.592 113.899 175.642 111.38 176.121C109.874 176.408 109.44 177.521 109.198 181.719C108.98 185.488 108.489 186.96 107.448 186.96C106.35 186.96 106 185.552 106 181.127ZM123.678 181.376C120.236 180.202 118.758 176.362 121.163 174.838C123.272 173.501 126.638 173.818 128.02 175.484C128.716 176.322 128.934 177.335 128.506 177.734C128.077 178.133 127.525 177.898 127.28 177.21C126.673 175.511 122 175.604 122 177.315C122 178.061 123.416 179.077 125.146 179.573C131.667 181.443 131.12 186.96 124.413 186.96C122.094 186.96 120.743 186.348 120 184.96C118.69 182.511 120.374 182.191 122.641 184.458C123.791 185.608 124.607 185.706 126.155 184.877C128.531 183.606 127.995 182.848 123.678 181.376ZM47.364 185.374C49.449 184.574 50.614 180.16 49.295 178.055C46.975 174.352 42 176.524 42 181.239C42 183.4 45.492 186.092 47.364 185.374ZM69.346 184.832C71.19 186.363 75 184.74 75 182.425C75 180.609 71.986 180.519 69.601 182.263C68.016 183.422 67.988 183.705 69.346 184.832Z" fill="#228725"/>
<circle cx="50.5" cy="11.5" r="11.5" fill="#F00202"/>
</g>
<defs>
<clipPath id="clip0_2_6">
<rect width="158" height="187" fill="white"/>
</clipPath>
</defs>
</svg>
